ply
format ascii 1.0
comment Created by Blender 2.61 (sub 0) - www.blender.org, source file: ''
element vertex 441
property float x
property float y
property float z
property float nx
property float ny
property float nz
element face 856
property list uchar uint vertex_indices
end_header
0.093750 -0.750000 0.664062 -0.517655 -0.704123 0.486007
0.046875 -0.851562 0.632812 -0.295846 0.474960 0.828761
0.093750 -0.812500 0.640625 -0.673757 0.115452 0.729850
-0.093750 -0.812500 0.640625 0.673757 0.115452 0.729850
-0.046875 -0.851562 0.632812 0.295846 0.474960 0.828761
-0.093750 -0.750000 0.664062 0.517655 -0.704123 0.486007
0.000000 0.406250 0.601562 0.000000 0.859188 0.511612
0.109375 0.460938 0.609375 -0.459304 0.862453 0.212592
0.000000 0.570312 0.570312 0.000000 0.529252 0.848445
-0.109375 0.460938 0.609375 0.459304 0.862453 0.212592
0.218750 -0.281250 0.429688 0.978698 -0.195837 0.061495
0.210938 -0.390625 0.164062 0.572680 -0.819666 0.011994
0.406250 -0.171875 0.148438 0.579028 -0.802698 0.142705
-0.406250 -0.171875 0.148438 -0.579028 -0.802698 0.142705
-0.210938 -0.390625 0.164062 -0.572680 -0.819666 0.011994
-0.218750 -0.281250 0.429688 -0.978698 -0.195837 0.061495
0.437500 -0.093750 0.468750 0.471969 -0.863674 -0.176794
0.203125 -0.171875 0.500000 0.785699 -0.571459 0.236732
0.210938 -0.226562 0.468750 0.887173 -0.157720 0.433607
-0.210938 -0.226562 0.468750 -0.887173 -0.157720 0.433607
-0.203125 -0.171875 0.500000 -0.785699 -0.571459 0.236732
-0.437500 -0.093750 0.468750 -0.471969 -0.863674 -0.176794
0.335938 0.054688 -0.664062 0.445479 -0.358348 -0.820399
0.484375 0.023438 -0.546875 0.529221 -0.505112 -0.681722
0.343750 -0.148438 -0.539062 0.522263 -0.653615 -0.547685
-0.343750 -0.148438 -0.539062 -0.522263 -0.653615 -0.547685
-0.484375 0.023438 -0.546875 -0.529221 -0.505112 -0.681722
-0.335938 0.054688 -0.664062 -0.445479 -0.358348 -0.820399
0.726562 0.000000 -0.070312 0.857204 -0.493118 -0.148289
0.718750 -0.023438 -0.171875 0.731193 0.114414 0.672475
0.718750 0.039062 -0.187500 0.960936 -0.118839 0.249855
-0.718750 0.039062 -0.187500 -0.960936 -0.118839 0.249855
-0.718750 -0.023438 -0.171875 -0.731193 0.114414 0.672475
-0.726562 0.000000 -0.070312 -0.857204 -0.493118 -0.148289
1.039062 0.328125 -0.414062 0.461776 -0.329142 0.823664
1.085938 0.273438 -0.390625 0.289651 0.315806 0.903500
1.187500 0.343750 -0.484375 -0.262398 -0.533067 0.804346
-1.187500 0.343750 -0.484375 0.262398 -0.533067 0.804346
-1.085938 0.273438 -0.390625 -0.289651 0.315806 0.903500
-1.039062 0.328125 -0.414062 -0.461776 -0.329142 0.823664
1.250000 0.468750 -0.546875 0.286996 0.597766 -0.748497
1.367188 0.296875 -0.500000 0.925260 0.091830 -0.367992
1.312500 0.054688 -0.531250 0.636586 -0.504318 -0.583392
-1.312500 0.054688 -0.531250 -0.636586 -0.504318 -0.583392
-1.367188 0.296875 -0.500000 -0.925260 0.091830 -0.367992
-1.250000 0.468750 -0.546875 -0.286996 0.597766 -0.748497
-0.789062 -0.125000 -0.328125 0.098849 -0.840846 -0.532151
-0.640625 -0.007812 -0.429688 -0.325510 -0.602924 -0.728355
-0.593750 -0.125000 -0.164062 -0.312296 -0.949950 0.001160
-0.773438 -0.140625 -0.125000 -0.029542 -0.634999 0.771905
0.593750 -0.125000 -0.164062 0.312296 -0.949950 0.001160
0.640625 -0.007812 -0.429688 0.325510 -0.602924 -0.728355
0.789062 -0.125000 -0.328125 -0.098849 -0.840846 -0.532151
0.773438 -0.140625 -0.125000 0.029542 -0.634999 0.771905
-0.859375 0.382812 -0.382812 0.650044 0.584643 -0.485336
-0.773438 0.265625 -0.437500 -0.670766 -0.045289 -0.740257
0.773438 0.265625 -0.437500 0.670766 -0.045289 -0.740257
0.859375 0.382812 -0.382812 -0.650044 0.584643 -0.485336
-0.890625 0.406250 -0.234375 0.279244 0.768303 0.575884
-0.820312 0.328125 -0.203125 -0.908536 0.224219 0.352489
0.820312 0.328125 -0.203125 0.908536 0.224219 0.352489
0.890625 0.406250 -0.234375 -0.279244 0.768303 0.575884
-1.023438 0.437500 -0.484375 0.414228 0.550890 -0.724479
-1.039062 -0.085938 -0.492188 0.025269 -0.679586 -0.733116
1.023438 0.437500 -0.484375 -0.414228 0.550890 -0.724479
1.039062 -0.085938 -0.492188 -0.025269 -0.679586 -0.733116
-1.023438 0.476562 -0.312500 -0.018799 0.872250 0.488632
1.023438 0.476562 -0.312500 0.018799 0.872250 0.488632
-1.234375 0.507812 -0.421875 -0.383557 0.862972 0.328776
1.234375 0.507812 -0.421875 0.383557 0.862972 0.328776
-1.351562 0.320312 -0.421875 -0.778802 0.167791 0.604389
1.351562 0.320312 -0.421875 0.778802 0.167791 0.604389
-1.281250 0.054688 -0.429688 -0.652608 -0.476821 0.588794
1.281250 0.054688 -0.429688 0.652608 -0.476821 0.588794
-1.039062 -0.101562 -0.328125 -0.502884 -0.780999 0.370312
1.039062 -0.101562 -0.328125 0.502884 -0.780999 0.370312
-1.109375 0.210938 -0.390625 -0.383129 -0.068514 0.921140
-1.257812 0.242188 -0.492188 0.752861 -0.033784 0.657277
1.109375 0.210938 -0.390625 0.383129 -0.068514 0.921140
1.257812 0.242188 -0.492188 -0.752861 -0.033784 0.657277
-1.054688 0.187500 -0.382812 -0.314371 -0.103732 0.943602
-1.210938 0.085938 -0.484375 0.583117 0.499893 0.640339
1.210938 0.085938 -0.484375 -0.583117 0.499893 0.640339
1.054688 0.187500 -0.382812 0.314371 -0.103732 0.943602
-1.000000 0.125000 -0.367188 -0.444807 -0.093692 0.890683
-1.046875 0.000000 -0.421875 -0.065004 0.703848 0.707358
1.046875 0.000000 -0.421875 0.065004 0.703848 0.707358
1.000000 0.125000 -0.367188 0.444807 -0.093692 0.890683
-0.937500 0.062500 -0.335938 -0.408429 0.127262 0.903836
-0.882812 -0.015625 -0.265625 0.033113 0.944914 0.325602
0.937500 0.062500 -0.335938 0.408429 0.127262 0.903836
0.882812 -0.015625 -0.265625 -0.033113 0.944914 0.325602
-0.851562 0.015625 -0.320312 -0.292917 0.370922 0.881222
-0.812500 -0.015625 -0.320312 -0.644978 0.310129 0.698386
0.812500 -0.015625 -0.320312 0.644978 0.310129 0.698386
0.851562 0.015625 -0.320312 0.292917 0.370922 0.881222
-0.843750 0.171875 -0.320312 -0.572527 -0.418928 0.704733
-0.890625 0.109375 -0.328125 -0.195105 0.038942 0.979980
-0.828125 0.078125 -0.320312 -0.449232 0.379864 0.808618
-0.765625 0.093750 -0.320312 -0.758354 0.266518 0.594806
0.828125 0.078125 -0.320312 0.449232 0.379864 0.808618
0.890625 0.109375 -0.328125 0.195105 0.038942 0.979980
0.843750 0.171875 -0.320312 0.572527 -0.418928 0.704733
0.765625 0.093750 -0.320312 0.758354 0.266518 0.594806
-0.960938 0.171875 -0.351562 -0.334666 -0.004578 0.942289
-0.890625 0.234375 -0.320312 -0.659291 -0.468490 0.588061
0.890625 0.234375 -0.320312 0.659291 -0.468490 0.588061
0.960938 0.171875 -0.351562 0.334666 -0.004578 0.942289
-1.015625 0.234375 -0.375000 -0.334300 0.106784 0.936369
-0.953125 0.289062 -0.343750 -0.648213 -0.420576 0.634724
0.953125 0.289062 -0.343750 0.648213 -0.420576 0.634724
1.015625 0.234375 -0.375000 0.334300 0.106784 0.936369
-1.039062 0.000000 -0.367188 0.186804 0.953825 0.235084
-0.882812 -0.023438 -0.210938 -0.162877 0.858028 0.487014
0.882812 -0.023438 -0.210938 0.162877 0.858028 0.487014
1.039062 0.000000 -0.367188 -0.186804 0.953825 0.235084
-1.187500 0.093750 -0.445312 0.762139 0.647084 -0.019318
1.187500 0.093750 -0.445312 -0.762139 0.647084 -0.019318
-1.234375 0.250000 -0.445312 0.984741 -0.099582 0.142613
1.234375 0.250000 -0.445312 -0.984741 -0.099582 0.142613
-1.171875 0.359375 -0.437500 0.149571 -0.745506 0.649464
1.171875 0.359375 -0.437500 -0.149571 -0.745506 0.649464
-1.023438 0.343750 -0.359375 -0.560442 -0.660878 0.499100
1.023438 0.343750 -0.359375 0.560442 -0.660878 0.499100
-0.945312 0.304688 -0.289062 -0.684194 -0.555773 0.472182
0.945312 0.304688 -0.289062 0.684194 -0.555773 0.472182
-0.812500 -0.015625 -0.273438 -0.599841 0.513138 0.613880
0.812500 -0.015625 -0.273438 0.599841 0.513138 0.613880
-0.843750 0.015625 -0.273438 -0.842036 -0.176244 0.509781
0.843750 0.015625 -0.273438 0.842036 -0.176244 0.509781
-0.820312 0.085938 -0.273438 -0.481368 0.634388 0.604816
0.820312 0.085938 -0.273438 0.481368 0.634388 0.604816
-0.757812 0.093750 -0.273438 -0.851466 0.041353 0.522752
0.757812 0.093750 -0.273438 0.851466 0.041353 0.522752
-0.835938 0.171875 -0.273438 -0.686361 -0.623371 0.374554
0.835938 0.171875 -0.273438 0.686361 -0.623371 0.374554
-0.890625 0.242188 -0.265625 -0.726066 -0.498917 0.473128
0.890625 0.242188 -0.265625 0.726066 -0.498917 0.473128
-0.796875 0.203125 -0.210938 -0.848354 -0.435377 0.301157
-0.859375 0.320312 -0.046875 -0.997009 -0.033296 -0.069521
0.859375 0.320312 -0.046875 0.997009 -0.033296 -0.069521
0.796875 0.203125 -0.210938 0.848354 -0.435377 0.301157
-0.843750 0.289062 -0.210938 -0.372723 -0.224158 0.900449
0.843750 0.289062 -0.210938 0.372723 -0.224158 0.900449
-0.921875 0.359375 -0.218750 -0.449232 -0.038331 0.892575
0.921875 0.359375 -0.218750 0.449232 -0.038331 0.892575
-0.828125 -0.070312 -0.132812 -0.329936 0.315653 0.889645
0.828125 -0.070312 -0.132812 0.329936 0.315653 0.889645
-0.734375 -0.046875 0.070312 -0.721030 -0.689810 0.065065
-0.851562 0.234375 0.054688 -0.985015 -0.160466 0.063051
0.851562 0.234375 0.054688 0.985015 -0.160466 0.063051
0.734375 -0.046875 0.070312 0.721030 -0.689810 0.065065
-1.015625 0.414062 -0.289062 -0.551164 -0.078768 0.830622
1.015625 0.414062 -0.289062 0.551164 -0.078768 0.830622
-1.187500 0.437500 -0.390625 -0.321451 -0.092318 0.942381
1.187500 0.437500 -0.390625 0.321451 -0.092318 0.942381
-1.265625 0.289062 -0.406250 0.154454 -0.123875 0.980193
1.265625 0.289062 -0.406250 -0.154454 -0.123875 0.980193
-1.210938 0.078125 -0.406250 0.041108 0.310831 0.949553
1.210938 0.078125 -0.406250 -0.041108 0.310831 0.949553
-1.031250 -0.039062 -0.304688 -0.538377 0.295267 0.789239
1.031250 -0.039062 -0.304688 0.538377 0.295267 0.789239
-0.429688 -0.195312 -0.210938 -0.563280 -0.817286 -0.121311
-0.296875 -0.312500 -0.265625 -0.507065 -0.837581 -0.203314
0.296875 -0.312500 -0.265625 0.507065 -0.837581 -0.203314
0.429688 -0.195312 -0.210938 0.563280 -0.817286 -0.121311
-0.617188 0.328125 -0.585938 -0.619648 -0.060457 -0.782525
-0.460938 0.437500 -0.703125 -0.473006 0.176305 -0.863216
0.460938 0.437500 -0.703125 0.473006 0.176305 -0.863216
0.617188 0.328125 -0.585938 0.619648 -0.060457 -0.782525
-0.601562 0.000000 0.414062 -0.544328 -0.837153 -0.053316
0.601562 0.000000 0.414062 0.544328 -0.837153 -0.053316
-0.796875 0.617188 -0.117188 -0.848628 0.528764 -0.014008
-0.796875 0.539062 -0.359375 -0.872158 0.314554 -0.374645
0.796875 0.539062 -0.359375 0.872158 0.314554 -0.374645
0.796875 0.617188 -0.117188 0.848628 0.528764 -0.014008
-0.796875 0.562500 0.125000 -0.741752 0.516434 0.427839
0.796875 0.562500 0.125000 0.741752 0.516434 0.427839
-0.726562 0.406250 0.335938 -0.771722 0.631062 0.078494
0.726562 0.406250 0.335938 0.771722 0.631062 0.078494
-0.773438 0.164062 0.375000 -0.930204 -0.306192 -0.202338
-0.796875 0.406250 0.460938 -0.695700 0.581378 -0.421827
0.796875 0.406250 0.460938 0.695700 0.581378 -0.421827
0.773438 0.164062 0.375000 0.930204 -0.306192 -0.202338
-0.460938 0.523438 0.429688 -0.340648 0.883206 0.322306
-0.484375 0.554688 0.554688 -0.226691 0.874813 -0.428114
0.484375 0.554688 0.554688 0.226691 0.874813 -0.428114
0.460938 0.523438 0.429688 0.340648 0.883206 0.322306
-0.335938 0.687500 0.593750 -0.119297 0.646138 -0.753807
-0.195312 0.664062 0.617188 0.476638 0.509445 -0.716392
0.195312 0.664062 0.617188 -0.476638 0.509445 -0.716392
0.335938 0.687500 0.593750 0.119297 0.646138 -0.753807
-0.453125 0.851562 0.234375 -0.444227 0.724418 0.527085
0.000000 0.898438 0.289062 0.000000 0.830622 0.556810
0.453125 0.851562 0.234375 0.444227 0.724418 0.527085
-0.632812 0.453125 0.281250 -0.444411 0.788537 0.425031
-0.679688 0.453125 0.492188 -0.345531 0.912442 -0.219123
0.679688 0.453125 0.492188 0.345531 0.912442 -0.219123
0.632812 0.453125 0.281250 0.444411 0.788537 0.425031
-0.640625 0.703125 0.054688 -0.668172 0.671865 0.319498
0.640625 0.703125 0.054688 0.668172 0.671865 0.319498
-0.453125 0.929688 -0.070312 -0.413495 0.909635 0.039460
-0.640625 0.750000 -0.195312 -0.678396 0.731376 -0.069521
0.453125 0.929688 -0.070312 0.413495 0.909635 0.039460
0.640625 0.750000 -0.195312 0.678396 0.731376 -0.069521
-0.453125 0.867188 -0.382812 -0.391247 0.815271 -0.426832
-0.640625 0.679688 -0.445312 -0.607532 0.569567 -0.553575
0.453125 0.867188 -0.382812 0.391247 0.815271 -0.426832
0.640625 0.679688 -0.445312 0.607532 0.569567 -0.553575
0.000000 0.898438 -0.546875 0.000000 0.834223 -0.551378
0.000000 0.562500 -0.851562 0.000000 0.365032 -0.930967
0.000000 0.984375 -0.078125 0.000000 0.999725 0.022584
0.000000 0.070312 -0.828125 0.000000 -0.304941 -0.952361
-0.179688 -0.414062 0.257812 -0.689322 -0.668691 -0.278603
-0.234375 -0.351562 0.406250 -0.895657 0.257729 -0.362407
0.234375 -0.351562 0.406250 0.895657 0.257729 -0.362407
0.179688 -0.414062 0.257812 0.689322 -0.668691 -0.278603
0.000000 -0.460938 0.187500 0.000000 -0.983032 -0.183294
0.000000 -0.484375 0.281250 0.000000 -0.771081 -0.636708
0.000000 -0.382812 -0.351562 0.000000 -0.941649 -0.336528
0.000000 -0.195312 -0.671875 0.000000 -0.691275 -0.722587
-0.437500 -0.140625 0.531250 -0.348827 -0.937132 -0.008148
-0.203125 -0.187500 0.562500 -0.891537 -0.330668 0.309458
0.203125 -0.187500 0.562500 0.891537 -0.330668 0.309458
0.437500 -0.140625 0.531250 0.348827 -0.937132 -0.008148
-0.234375 -0.250000 0.554688 -0.930601 0.343516 0.126347
0.234375 -0.250000 0.554688 0.930601 0.343516 0.126347
-0.257812 -0.312500 0.554688 -0.927763 0.353008 0.120884
-0.312500 -0.437500 0.570312 -0.955718 0.249184 0.156468
0.312500 -0.437500 0.570312 0.955718 0.249184 0.156468
0.257812 -0.312500 0.554688 0.927763 0.353008 0.120884
-0.250000 -0.500000 0.390625 -0.779839 -0.010498 -0.625843
-0.351562 -0.695312 0.570312 -0.972808 0.100314 0.208716
0.351562 -0.695312 0.570312 0.972808 0.100314 0.208716
0.250000 -0.500000 0.390625 0.779839 -0.010498 -0.625843
-0.125000 -0.539062 0.359375 -0.277078 -0.314737 -0.907804
0.125000 -0.539062 0.359375 0.277078 -0.314737 -0.907804
-0.164062 -0.945312 0.437500 -0.067476 -0.783166 -0.618122
-0.328125 -0.914062 0.398438 -0.555071 -0.476211 -0.681967
-0.140625 -0.757812 0.367188 -0.151372 -0.150975 -0.976867
-0.289062 -0.710938 0.382812 -0.620380 0.083468 -0.779809
0.289062 -0.710938 0.382812 0.620380 0.083468 -0.779809
0.328125 -0.914062 0.398438 0.555071 -0.476211 -0.681967
0.140625 -0.757812 0.367188 0.151372 -0.150975 -0.976867
0.164062 -0.945312 0.437500 0.067476 -0.783166 -0.618122
-0.367188 -0.890625 0.531250 -0.945708 -0.257851 0.197699
0.367188 -0.890625 0.531250 0.945708 -0.257851 0.197699
-0.328125 -0.945312 0.523438 -0.526658 -0.834651 0.161107
0.328125 -0.945312 0.523438 0.526658 -0.834651 0.161107
-0.179688 -0.968750 0.554688 -0.159551 -0.975249 0.152898
0.179688 -0.968750 0.554688 0.159551 -0.975249 0.152898
0.000000 -0.976562 0.460938 0.000000 -0.881802 -0.471603
0.000000 -0.984375 0.578125 0.000000 -0.967650 0.252266
0.000000 -0.804688 0.343750 0.000000 -0.297342 -0.954741
0.000000 -0.570312 0.320312 0.000000 -0.213294 -0.976959
-0.632812 -0.039062 0.539062 -0.587481 -0.784875 0.196966
0.632812 -0.039062 0.539062 0.587481 -0.784875 0.196966
-0.828125 0.148438 0.445312 -0.906980 -0.400922 -0.128941
0.828125 0.148438 0.445312 0.906980 -0.400922 -0.128941
-0.859375 0.429688 0.593750 -0.845119 0.443403 0.298502
0.859375 0.429688 0.593750 0.845119 0.443403 0.298502
-0.710938 0.484375 0.625000 -0.517045 0.829127 0.212531
0.710938 0.484375 0.625000 0.517045 0.829127 0.212531
-0.492188 0.601562 0.687500 -0.597552 0.784722 0.164586
0.492188 0.601562 0.687500 0.597552 0.784722 0.164586
-0.320312 0.757812 0.734375 -0.231269 0.956999 0.175054
0.320312 0.757812 0.734375 0.231269 0.956999 0.175054
-0.156250 0.718750 0.757812 0.605060 0.768029 0.209754
0.156250 0.718750 0.757812 -0.605060 0.768029 0.209754
-0.062500 0.492188 0.750000 0.824183 0.546770 0.147313
0.062500 0.492188 0.750000 -0.824183 0.546770 0.147313
0.000000 0.429688 0.742188 0.000000 0.963591 0.267281
-0.203125 0.171875 0.750000 -0.688040 0.298471 0.661397
-0.187500 0.156250 0.773438 0.010102 -0.069979 0.997467
-0.171875 0.218750 0.781250 -0.158055 -0.084231 0.983825
-0.195312 0.226562 0.750000 -0.801630 0.010987 0.597674
0.171875 0.218750 0.781250 0.158055 -0.084231 0.983825
0.187500 0.156250 0.773438 -0.010102 -0.069979 0.997467
0.203125 0.171875 0.750000 0.688040 0.298471 0.661397
0.195312 0.226562 0.750000 0.801630 0.010987 0.597674
-0.179688 0.296875 0.781250 -0.293405 -0.060152 0.954070
-0.195312 0.296875 0.757812 -0.789361 -0.203192 0.579302
0.179688 0.296875 0.781250 0.293405 -0.060152 0.954070
0.195312 0.296875 0.757812 0.789361 -0.203192 0.579302
-0.210938 0.375000 0.781250 -0.182958 -0.102878 0.977691
-0.234375 0.359375 0.757812 -0.463424 -0.394910 0.793237
0.210938 0.375000 0.781250 0.182958 -0.102878 0.977691
0.234375 0.359375 0.757812 0.463424 -0.394910 0.793237
-0.242188 0.125000 0.757812 -0.432264 0.583300 0.687643
-0.226562 0.109375 0.781250 0.031709 -0.219794 0.975005
0.226562 0.109375 0.781250 -0.031709 -0.219794 0.975005
0.242188 0.125000 0.757812 0.432264 0.583300 0.687643
-0.375000 0.085938 0.726562 -0.143071 0.558672 0.816919
-0.375000 0.062500 0.742188 -0.184454 -0.186316 0.964995
0.375000 0.062500 0.742188 0.184454 -0.186316 0.964995
0.375000 0.085938 0.726562 0.143071 0.558672 0.816919
-0.460938 0.117188 0.703125 0.165288 0.609790 0.775109
-0.476562 0.101562 0.718750 -0.298990 -0.035615 0.953581
0.476562 0.101562 0.718750 0.298990 -0.035615 0.953581
0.460938 0.117188 0.703125 -0.165288 0.609790 0.775109
-0.546875 0.210938 0.671875 0.192145 0.191351 0.962523
-0.578125 0.195312 0.679688 -0.294290 -0.102023 0.950224
0.578125 0.195312 0.679688 0.294290 -0.102023 0.950224
0.546875 0.210938 0.671875 -0.192145 0.191351 0.962523
-0.554688 0.281250 0.671875 0.422926 -0.107761 0.899716
-0.585938 0.289062 0.687500 -0.177587 -0.060762 0.982208
0.585938 0.289062 0.687500 0.177587 -0.060762 0.982208
0.554688 0.281250 0.671875 -0.422926 -0.107761 0.899716
-0.531250 0.335938 0.679688 0.142308 -0.582629 0.800165
-0.562500 0.351562 0.695312 -0.294351 0.004639 0.955657
0.562500 0.351562 0.695312 0.294351 0.004639 0.955657
0.531250 0.335938 0.679688 -0.142308 -0.582629 0.800165
-0.414062 0.390625 0.750000 0.274056 -0.855617 0.439100
-0.421875 0.398438 0.773438 -0.088687 -0.127171 0.987884
0.421875 0.398438 0.773438 0.088687 -0.127171 0.987884
0.414062 0.390625 0.750000 -0.274056 -0.855617 0.439100
-0.335938 0.406250 0.750000 -0.113315 -0.314188 0.942564
-0.335938 0.429688 0.757812 -0.203619 0.103183 0.973571
0.335938 0.429688 0.757812 0.203619 0.103183 0.973571
0.335938 0.406250 0.750000 0.113315 -0.314188 0.942564
-0.281250 0.398438 0.765625 -0.174383 -0.268319 0.947386
-0.273438 0.421875 0.773438 -0.131504 0.064974 0.989166
0.273438 0.421875 0.773438 0.131504 0.064974 0.989166
0.281250 0.398438 0.765625 0.174383 -0.268319 0.947386
-0.164062 0.414062 0.773438 -0.367840 -0.283608 0.885556
-0.250000 0.468750 0.757812 -0.258156 -0.126499 0.957762
0.250000 0.468750 0.757812 0.258156 -0.126499 0.957762
0.164062 0.414062 0.773438 0.367840 -0.283608 0.885556
-0.328125 0.476562 0.742188 -0.149022 -0.154149 0.976714
0.328125 0.476562 0.742188 0.149022 -0.154149 0.976714
-0.429688 0.437500 0.718750 -0.219001 0.037141 0.975005
0.429688 0.437500 0.718750 0.219001 0.037141 0.975005
-0.601562 0.375000 0.664062 -0.225410 -0.360759 0.904996
0.601562 0.375000 0.664062 0.225410 -0.360759 0.904996
-0.640625 0.296875 0.648438 -0.358806 -0.119175 0.925748
0.640625 0.296875 0.648438 0.358806 -0.119175 0.925748
-0.625000 0.187500 0.648438 -0.460219 -0.165105 0.872280
0.625000 0.187500 0.648438 0.460219 -0.165105 0.872280
-0.492188 0.062500 0.671875 -0.427900 -0.389508 0.815577
0.492188 0.062500 0.671875 0.427900 -0.389508 0.815577
-0.375000 0.015625 0.703125 -0.158940 -0.498917 0.851924
0.375000 0.015625 0.703125 0.158940 -0.498917 0.851924
-0.203125 0.093750 0.742188 0.128178 -0.292001 0.947752
0.203125 0.093750 0.742188 -0.128178 -0.292001 0.947752
-0.164062 0.140625 0.750000 0.239296 -0.301187 0.923032
0.164062 0.140625 0.750000 -0.239296 -0.301187 0.923032
-0.125000 0.304688 0.765625 -0.031587 -0.178167 0.983459
0.125000 0.304688 0.765625 0.031587 -0.178167 0.983459
-0.132812 0.210938 0.757812 0.200568 -0.134953 0.970306
0.132812 0.210938 0.757812 -0.200568 -0.134953 0.970306
0.000000 -0.859375 0.632812 0.000000 0.533403 0.845851
0.000000 -0.781250 0.656250 0.000000 -0.698935 0.715171
0.000000 -0.773438 0.718750 0.000000 -0.961943 0.273232
-0.093750 -0.742188 0.726562 0.136845 -0.527268 0.838588
0.093750 -0.742188 0.726562 -0.136845 -0.527268 0.838588
-0.093750 -0.820312 0.710938 0.635121 0.042756 0.771203
0.093750 -0.820312 0.710938 -0.635121 0.042756 0.771203
-0.046875 -0.867188 0.687500 0.414106 0.579821 0.701621
0.046875 -0.867188 0.687500 -0.414106 0.579821 0.701621
0.000000 -0.875000 0.687500 0.000000 0.558763 0.829310
-0.062500 -0.882812 0.695312 0.058870 -0.378430 0.923734
0.000000 -0.890625 0.687500 0.000000 -0.346507 0.938017
0.062500 -0.882812 0.695312 -0.058870 -0.378430 0.923734
-0.117188 -0.835938 0.710938 -0.130711 -0.318644 0.938810
0.117188 -0.835938 0.710938 0.130711 -0.318644 0.938810
-0.109375 -0.718750 0.734375 -0.145940 -0.120182 0.981933
0.109375 -0.718750 0.734375 0.145940 -0.120182 0.981933
0.000000 -0.765625 0.734375 0.000000 -0.586963 0.809595
-0.164062 -0.242188 0.710938 -0.775140 0.038667 0.630573
-0.125000 -0.101562 0.812500 -0.056093 -0.263863 0.962920
0.125000 -0.101562 0.812500 0.056093 -0.263863 0.962920
0.164062 -0.242188 0.710938 0.775140 0.038667 0.630573
-0.179688 -0.312500 0.710938 -0.650655 0.148747 0.744652
0.179688 -0.312500 0.710938 0.650655 0.148747 0.744652
-0.210938 -0.445312 0.710938 -0.593677 0.108158 0.797388
0.210938 -0.445312 0.710938 0.593677 0.108158 0.797388
-0.078125 -0.445312 0.750000 -0.134098 0.006256 0.990936
-0.085938 -0.289062 0.742188 -0.500259 -0.429243 0.751946
0.085938 -0.289062 0.742188 0.500259 -0.429243 0.751946
0.078125 -0.445312 0.750000 0.134098 0.006256 0.990936
-0.125000 -0.226562 0.750000 -0.932157 -0.137761 0.334758
0.125000 -0.226562 0.750000 0.932157 -0.137761 0.334758
-0.101562 -0.148438 0.742188 -0.501389 -0.325327 0.801691
0.101562 -0.148438 0.742188 0.501389 -0.325327 0.801691
0.000000 -0.140625 0.742188 0.000000 0.516556 0.856227
0.000000 0.046875 0.726562 0.000000 0.064272 0.997925
-0.078125 -0.250000 0.804688 -0.183294 -0.586352 0.789026
0.000000 -0.289062 0.804688 0.000000 -0.481521 0.876431
0.000000 -0.203125 0.828125 0.000000 0.157842 0.987457
-0.109375 -0.226562 0.828125 -0.448805 -0.314707 0.836360
0.078125 -0.250000 0.804688 0.183294 -0.586352 0.789026
0.109375 -0.226562 0.828125 0.448805 -0.314707 0.836360
-0.093750 -0.156250 0.812500 -0.361095 0.471267 0.804651
-0.046875 -0.148438 0.812500 0.185736 0.595599 0.781487
0.046875 -0.148438 0.812500 -0.185736 0.595599 0.781487
0.093750 -0.156250 0.812500 0.361095 0.471267 0.804651
-0.132812 -0.226562 0.796875 -0.926237 -0.243049 0.288003
-0.093750 -0.273438 0.781250 -0.583575 -0.692862 0.423475
0.132812 -0.226562 0.796875 0.926237 -0.243049 0.288003
0.093750 -0.273438 0.781250 0.583575 -0.692862 0.423475
-0.109375 -0.132812 0.781250 -0.618641 0.775658 0.124790
0.109375 -0.132812 0.781250 0.618641 0.775658 0.124790
-0.039062 -0.125000 0.781250 0.240516 0.949034 0.203558
0.039062 -0.125000 0.781250 -0.240516 0.949034 0.203558
0.000000 -0.187500 0.796875 0.000000 0.828700 0.559648
0.000000 -0.320312 0.781250 0.000000 -0.865383 0.501053
0.000000 -0.328125 0.742188 0.000000 -0.475936 0.879452
0.000000 -0.195312 0.750000 -1.000000 0.000000 0.000000
-0.117188 -0.687500 0.734375 -0.181524 -0.045198 0.982330
0.000000 -0.679688 0.734375 0.000000 -0.034059 0.999390
0.117188 -0.687500 0.734375 0.181524 -0.045198 0.982330
0.000000 -0.445312 0.750000 0.000000 0.000000 1.000000
-0.250000 -0.703125 0.687500 -0.565172 -0.029725 0.824396
-0.265625 -0.820312 0.664062 -0.555650 -0.226356 0.799982
0.265625 -0.820312 0.664062 0.555650 -0.226356 0.799982
0.250000 -0.703125 0.687500 0.565172 -0.029725 0.824396
-0.234375 -0.914062 0.632812 -0.350230 -0.639149 0.684683
0.234375 -0.914062 0.632812 0.350230 -0.639149 0.684683
-0.164062 -0.929688 0.632812 -0.155370 -0.758965 0.632282
0.164062 -0.929688 0.632812 0.155370 -0.758965 0.632282
0.000000 -0.945312 0.640625 0.000000 -0.775323 0.631550
0.000000 0.210938 0.765625 0.000000 -0.221992 0.975036
0.000000 0.351562 0.820312 0.000000 -0.082736 0.996551
-0.101562 0.429688 0.843750 0.061098 -0.025239 0.997803
0.101562 0.429688 0.843750 -0.061098 -0.025239 0.997803
-0.398438 -0.046875 0.671875 -0.344279 -0.546617 0.763298
0.398438 -0.046875 0.671875 0.344279 -0.546617 0.763298
-0.617188 0.054688 0.625000 -0.499130 -0.376049 0.780663
0.617188 0.054688 0.625000 0.499130 -0.376049 0.780663
-0.726562 0.203125 0.601562 -0.566546 -0.318796 0.759819
0.726562 0.203125 0.601562 0.566546 -0.318796 0.759819
-0.742188 0.375000 0.656250 -0.460707 -0.144810 0.875637
0.742188 0.375000 0.656250 0.460707 -0.144810 0.875637
-0.687500 0.414062 0.726562 -0.480117 -0.183264 0.857814
0.687500 0.414062 0.726562 0.480117 -0.183264 0.857814
-0.437500 0.546875 0.796875 -0.308451 0.003845 0.951201
0.437500 0.546875 0.796875 0.308451 0.003845 0.951201
-0.312500 0.640625 0.835938 -0.266579 0.216590 0.939146
0.312500 0.640625 0.835938 0.266579 0.216590 0.939146
-0.203125 0.617188 0.851562 0.157384 0.166021 0.973449
0.203125 0.617188 0.851562 -0.157384 0.166021 0.973449
3 0 1 2
3 3 4 5
3 6 7 8
3 8 9 6
3 10 11 12
3 13 14 15
3 16 17 18
3 19 20 21
3 22 23 24
3 25 26 27
3 28 29 30
3 31 32 33
3 34 35 36
3 37 38 39
3 40 41 42
3 43 44 45
3 46 47 48
3 46 48 49
3 50 51 52
3 50 52 53
3 46 54 55
3 46 55 47
3 56 57 52
3 56 52 51
3 58 59 54
3 59 55 54
3 56 60 57
3 60 61 57
3 43 45 62
3 43 62 63
3 64 40 42
3 64 42 65
3 46 63 54
3 63 62 54
3 64 65 57
3 65 52 57
3 62 66 54
3 66 58 54
3 61 67 57
3 67 64 57
3 45 68 62
3 68 66 62
3 67 69 64
3 69 40 64
3 44 70 45
3 70 68 45
3 69 71 40
3 71 41 40
3 43 72 44
3 72 70 44
3 71 73 41
3 73 42 41
3 63 74 72
3 63 72 43
3 73 75 65
3 73 65 42
3 46 49 74
3 46 74 63
3 75 53 52
3 75 52 65
3 76 38 37
3 76 37 77
3 36 35 78
3 36 78 79
3 80 76 81
3 76 77 81
3 79 78 82
3 78 83 82
3 84 80 85
3 80 81 85
3 82 83 86
3 83 87 86
3 88 84 85
3 88 85 89
3 86 87 90
3 86 90 91
3 88 89 92
3 89 93 92
3 94 91 95
3 91 90 95
3 96 97 98
3 96 98 99
3 100 101 102
3 100 102 103
3 97 96 104
3 96 105 104
3 106 102 107
3 102 101 107
3 108 104 109
3 104 105 109
3 106 107 110
3 107 111 110
3 108 109 39
3 108 39 38
3 34 110 111
3 34 111 35
3 76 80 38
3 80 108 38
3 111 83 35
3 83 78 35
3 80 84 104
3 80 104 108
3 107 87 83
3 107 83 111
3 84 88 104
3 88 97 104
3 101 90 107
3 90 87 107
3 88 92 97
3 92 98 97
3 100 95 101
3 95 90 101
3 85 112 89
3 112 113 89
3 114 115 91
3 115 86 91
3 81 116 85
3 116 112 85
3 115 117 86
3 117 82 86
3 77 118 81
3 118 116 81
3 117 119 82
3 119 79 82
3 37 120 118
3 37 118 77
3 119 121 36
3 119 36 79
3 39 122 120
3 39 120 37
3 121 123 34
3 121 34 36
3 109 124 122
3 109 122 39
3 123 125 110
3 123 110 34
3 89 113 126
3 89 126 93
3 127 114 91
3 127 91 94
3 93 126 128
3 93 128 92
3 129 127 94
3 129 94 95
3 92 128 98
3 128 130 98
3 131 129 100
3 129 95 100
3 98 130 99
3 130 132 99
3 133 131 103
3 131 100 103
3 99 132 134
3 99 134 96
3 135 133 103
3 135 103 102
3 96 134 105
3 134 136 105
3 137 135 106
3 135 102 106
3 105 136 124
3 105 124 109
3 125 137 106
3 125 106 110
3 31 33 138
3 33 139 138
3 140 28 141
3 28 30 141
3 142 138 59
3 138 139 59
3 140 141 60
3 141 143 60
3 136 142 124
3 142 144 124
3 145 143 125
3 143 137 125
3 134 138 136
3 138 142 136
3 143 141 137
3 141 135 137
3 31 138 132
3 138 134 132
3 135 141 133
3 141 30 133
3 128 31 132
3 128 132 130
3 133 30 129
3 133 129 131
3 32 31 126
3 31 128 126
3 129 30 127
3 30 29 127
3 126 113 146
3 126 146 32
3 147 114 127
3 147 127 29
3 144 142 59
3 144 59 58
3 60 143 145
3 60 145 61
3 33 148 149
3 33 149 139
3 150 151 28
3 150 28 140
3 146 49 32
3 49 48 32
3 50 53 29
3 53 147 29
3 32 48 33
3 48 148 33
3 151 50 28
3 50 29 28
3 124 144 152
3 124 152 122
3 153 145 125
3 153 125 123
3 120 122 154
3 122 152 154
3 153 123 155
3 123 121 155
3 118 120 156
3 120 154 156
3 155 121 157
3 121 119 157
3 116 118 158
3 118 156 158
3 157 119 159
3 119 117 159
3 112 116 158
3 112 158 160
3 159 117 115
3 159 115 161
3 113 112 160
3 113 160 146
3 161 115 114
3 161 114 147
3 146 160 74
3 146 74 49
3 75 161 147
3 75 147 53
3 160 158 74
3 158 72 74
3 73 159 75
3 159 161 75
3 158 156 72
3 156 70 72
3 71 157 73
3 157 159 73
3 156 154 70
3 154 68 70
3 69 155 71
3 155 157 71
3 154 152 66
3 154 66 68
3 67 153 155
3 67 155 69
3 144 58 152
3 58 66 152
3 67 61 153
3 61 145 153
3 26 25 162
3 25 163 162
3 164 24 165
3 24 23 165
3 26 162 47
3 162 48 47
3 50 165 51
3 165 23 51
3 26 166 27
3 166 167 27
3 168 169 22
3 169 23 22
3 26 47 166
3 47 55 166
3 56 51 169
3 51 23 169
3 15 19 21
3 15 21 13
3 16 18 10
3 16 10 12
3 13 21 170
3 13 170 148
3 171 16 12
3 171 12 151
3 162 13 48
3 13 148 48
3 151 12 50
3 12 165 50
3 162 163 13
3 163 14 13
3 11 164 12
3 164 165 12
3 172 173 59
3 173 55 59
3 56 174 60
3 174 175 60
3 172 59 139
3 172 139 176
3 140 60 175
3 140 175 177
3 176 139 149
3 176 149 178
3 150 140 177
3 150 177 179
3 149 180 178
3 180 181 178
3 182 183 179
3 183 150 179
3 184 185 9
3 184 9 8
3 7 186 187
3 7 187 8
3 188 189 185
3 189 9 185
3 7 190 186
3 190 191 186
3 192 184 193
3 184 8 193
3 8 187 193
3 187 194 193
3 195 196 184
3 196 185 184
3 186 197 187
3 197 198 187
3 195 184 192
3 195 192 199
3 194 187 198
3 194 198 200
3 199 192 201
3 199 201 202
3 203 194 200
3 203 200 204
3 202 201 205
3 202 205 206
3 207 203 204
3 207 204 208
3 206 205 167
3 206 167 166
3 168 207 208
3 168 208 169
3 206 166 173
3 166 55 173
3 56 169 174
3 169 208 174
3 173 172 202
3 173 202 206
3 204 175 174
3 204 174 208
3 172 176 199
3 172 199 202
3 200 177 175
3 200 175 204
3 176 178 195
3 176 195 199
3 198 179 177
3 198 177 200
3 178 181 196
3 178 196 195
3 197 182 179
3 197 179 198
3 167 205 209
3 167 209 210
3 209 207 168
3 209 168 210
3 205 201 211
3 205 211 209
3 211 203 207
3 211 207 209
3 201 192 211
3 192 193 211
3 193 194 211
3 194 203 211
3 27 167 212
3 167 210 212
3 210 168 212
3 168 22 212
3 148 170 180
3 148 180 149
3 183 171 151
3 183 151 150
3 14 213 15
3 213 214 15
3 215 216 10
3 216 11 10
3 213 14 217
3 213 217 218
3 217 11 216
3 217 216 218
3 14 163 219
3 14 219 217
3 219 164 11
3 219 11 217
3 163 25 219
3 25 220 219
3 220 24 219
3 24 164 219
3 25 27 220
3 27 212 220
3 212 22 220
3 22 24 220
3 21 20 221
3 20 222 221
3 223 17 224
3 17 16 224
3 19 225 20
3 225 222 20
3 223 226 17
3 226 18 17
3 15 214 227
3 214 228 227
3 229 215 230
3 215 10 230
3 19 15 225
3 15 227 225
3 230 10 226
3 10 18 226
3 231 232 228
3 231 228 214
3 229 233 234
3 229 234 215
3 235 231 213
3 231 214 213
3 215 234 216
3 234 236 216
3 237 238 239
3 238 240 239
3 241 242 243
3 242 244 243
3 235 239 240
3 235 240 231
3 241 243 236
3 241 236 234
3 240 245 232
3 240 232 231
3 233 246 241
3 233 241 234
3 238 247 245
3 238 245 240
3 246 248 242
3 246 242 241
3 237 249 247
3 237 247 238
3 248 250 244
3 248 244 242
3 251 252 249
3 251 249 237
3 250 252 251
3 250 251 244
3 239 253 237
3 253 251 237
3 251 253 244
3 253 243 244
3 235 254 239
3 254 253 239
3 253 254 243
3 254 236 243
3 213 218 235
3 218 254 235
3 254 218 236
3 218 216 236
3 21 221 255
3 21 255 170
3 256 224 16
3 256 16 171
3 170 255 257
3 170 257 180
3 258 256 171
3 258 171 183
3 180 257 181
3 257 259 181
3 260 258 182
3 258 183 182
3 181 259 261
3 181 261 196
3 262 260 182
3 262 182 197
3 196 261 185
3 261 263 185
3 264 262 186
3 262 197 186
3 185 263 188
3 263 265 188
3 266 264 191
3 264 186 191
3 188 265 189
3 265 267 189
3 268 266 190
3 266 191 190
3 189 267 269
3 189 269 9
3 270 268 190
3 270 190 7
3 271 6 9
3 271 9 269
3 271 270 7
3 271 7 6
3 272 273 274
3 272 274 275
3 276 277 278
3 276 278 279
3 275 274 280
3 275 280 281
3 282 276 279
3 282 279 283
3 281 280 284
3 281 284 285
3 286 282 283
3 286 283 287
3 288 289 273
3 288 273 272
3 277 290 291
3 277 291 278
3 292 293 288
3 293 289 288
3 290 294 291
3 294 295 291
3 296 297 292
3 297 293 292
3 294 298 295
3 298 299 295
3 300 301 297
3 300 297 296
3 298 302 303
3 298 303 299
3 304 305 300
3 305 301 300
3 302 306 303
3 306 307 303
3 308 309 305
3 308 305 304
3 306 310 311
3 306 311 307
3 312 313 308
3 313 309 308
3 310 314 311
3 314 315 311
3 316 317 312
3 317 313 312
3 314 318 315
3 318 319 315
3 320 321 317
3 320 317 316
3 318 322 323
3 318 323 319
3 285 284 321
3 285 321 320
3 322 286 287
3 322 287 323
3 284 324 325
3 284 325 321
3 326 327 286
3 326 286 322
3 321 325 328
3 321 328 317
3 329 326 322
3 329 322 318
3 317 328 330
3 317 330 313
3 331 329 318
3 331 318 314
3 313 330 309
3 330 332 309
3 333 331 310
3 331 314 310
3 309 332 305
3 332 334 305
3 335 333 306
3 333 310 306
3 305 334 336
3 305 336 301
3 337 335 306
3 337 306 302
3 301 336 338
3 301 338 297
3 339 337 302
3 339 302 298
3 297 338 340
3 297 340 293
3 341 339 298
3 341 298 294
3 293 340 342
3 293 342 289
3 343 341 294
3 343 294 290
3 289 342 273
3 342 344 273
3 345 343 277
3 343 290 277
3 280 346 284
3 346 324 284
3 327 347 286
3 347 282 286
3 274 348 346
3 274 346 280
3 347 349 276
3 347 276 282
3 273 344 348
3 273 348 274
3 349 345 277
3 349 277 276
3 4 350 351
3 4 351 5
3 351 350 1
3 351 1 0
3 351 352 5
3 352 353 5
3 354 352 0
3 352 351 0
3 5 353 355
3 5 355 3
3 356 354 0
3 356 0 2
3 3 355 357
3 3 357 4
3 358 356 2
3 358 2 1
3 4 357 350
3 357 359 350
3 359 358 350
3 358 1 350
3 357 360 361
3 357 361 359
3 361 362 358
3 361 358 359
3 355 363 360
3 355 360 357
3 362 364 356
3 362 356 358
3 353 365 363
3 353 363 355
3 364 366 354
3 364 354 356
3 352 367 353
3 367 365 353
3 366 367 354
3 367 352 354
3 368 369 222
3 368 222 225
3 223 370 371
3 223 371 226
3 368 225 372
3 225 227 372
3 230 226 373
3 226 371 373
3 372 227 374
3 227 228 374
3 229 230 375
3 230 373 375
3 374 376 372
3 376 377 372
3 378 379 373
3 379 375 373
3 372 377 368
3 377 380 368
3 381 378 371
3 378 373 371
3 368 380 382
3 368 382 369
3 383 381 371
3 383 371 370
3 369 382 384
3 369 384 385
3 384 383 370
3 384 370 385
3 386 387 388
3 386 388 389
3 388 387 390
3 388 390 391
3 392 389 393
3 389 388 393
3 388 391 394
3 391 395 394
3 386 389 396
3 386 396 397
3 398 391 390
3 398 390 399
3 389 392 396
3 392 400 396
3 401 395 398
3 395 391 398
3 392 393 402
3 392 402 400
3 403 394 395
3 403 395 401
3 393 388 404
3 393 404 402
3 404 388 394
3 404 394 403
3 386 397 387
3 397 405 387
3 405 399 387
3 399 390 387
3 397 377 405
3 377 406 405
3 406 378 405
3 378 399 405
3 402 404 384
3 404 407 384
3 407 404 384
3 404 403 384
3 400 402 382
3 402 384 382
3 384 403 383
3 403 401 383
3 396 400 380
3 400 382 380
3 383 401 381
3 401 398 381
3 397 396 380
3 397 380 377
3 381 398 399
3 381 399 378
3 408 365 409
3 365 367 409
3 367 366 409
3 366 410 409
3 411 376 409
3 376 408 409
3 410 379 409
3 379 411 409
3 411 406 376
3 406 377 376
3 378 406 379
3 406 411 379
3 412 413 365
3 412 365 408
3 366 414 415
3 366 415 410
3 408 376 374
3 408 374 412
3 375 379 410
3 375 410 415
3 416 363 413
3 363 365 413
3 366 364 414
3 364 417 414
3 418 360 363
3 418 363 416
3 364 362 419
3 364 419 417
3 420 361 360
3 420 360 418
3 362 361 420
3 362 420 419
3 348 344 421
3 344 385 421
3 385 345 421
3 345 349 421
3 421 422 346
3 421 346 348
3 347 422 421
3 347 421 349
3 422 423 346
3 423 324 346
3 327 424 347
3 424 422 347
3 385 344 342
3 385 342 369
3 343 345 385
3 343 385 370
3 425 369 342
3 425 342 340
3 343 370 426
3 343 426 341
3 427 425 338
3 425 340 338
3 341 426 339
3 426 428 339
3 429 427 336
3 427 338 336
3 339 428 337
3 428 430 337
3 431 429 334
3 429 336 334
3 337 430 335
3 430 432 335
3 433 431 332
3 431 334 332
3 335 432 333
3 432 434 333
3 435 433 330
3 433 332 330
3 333 434 331
3 434 436 331
3 437 435 328
3 435 330 328
3 331 436 329
3 436 438 329
3 437 328 325
3 437 325 439
3 326 329 438
3 326 438 440
3 439 325 423
3 325 324 423
3 327 326 424
3 326 440 424
3 422 271 423
3 271 269 423
3 270 271 424
3 271 422 424
3 423 269 439
3 269 267 439
3 268 270 440
3 270 424 440
3 439 267 437
3 267 265 437
3 266 268 438
3 268 440 438
3 437 265 263
3 437 263 435
3 264 266 438
3 264 438 436
3 435 263 433
3 263 261 433
3 262 264 434
3 264 436 434
3 433 261 431
3 261 259 431
3 260 262 432
3 262 434 432
3 431 259 429
3 259 257 429
3 258 260 430
3 260 432 430
3 429 257 255
3 429 255 427
3 256 258 430
3 256 430 428
3 427 255 425
3 255 221 425
3 224 256 426
3 256 428 426
3 425 221 222
3 425 222 369
3 223 224 426
3 223 426 370
3 412 374 228
3 412 228 232
3 229 375 415
3 229 415 233
3 413 412 232
3 413 232 245
3 233 415 414
3 233 414 246
3 416 413 245
3 416 245 247
3 246 414 417
3 246 417 248
3 418 416 249
3 416 247 249
3 248 417 250
3 417 419 250
3 420 418 252
3 418 249 252
3 250 419 252
3 419 420 252
